<?xml version="1.0" encoding="utf-8"?>
<svg version="1.1" id="Layer_1" xmlns="http://www.w3.org/2000/svg" xmlns:xlink="http://www.w3.org/1999/xlink" x="0px" y="0px"
	 viewBox="0 0 1200 1200" style="enable-background:new 0 0 1200 1200;" xml:space="preserve">
<path fill='#fff' d="M598.4,0C267.9,0,0,267.9,0,598.4s267.9,598.4,598.4,598.4s598.4-267.9,598.4-598.4S928.8,0,598.4,0z
	 M589.3,118.8c42.9,0,77.6,34.7,77.6,77.3c0,42.9-34.7,77.6-77.6,77.6c-42.6,0-77.3-34.7-77.3-77.6
	C512,153.5,546.7,118.8,589.3,118.8z M924.6,368.7l-230.2,29.1l0.1,230.4L806,1000.6c5.9,23.5-8.2,47-31.5,52.8
	c-23.2,5.8-47-7-52.9-30.5L607.4,684h-35.2l-105.1,345.9c-8.8,22.6-33.9,33-56.5,24.2c-22.3-8.7-36-34.1-27.2-56.7L480,632V397.8
	L267.9,369c-21.8-1.8-36.6-20.9-34.8-42.7c1.6-21.9,21.4-38.2,43.2-36.5L534,312h113l274.4-22.6c21.8-0.9,40.3,16.1,41,38.1
	C963.3,349.3,946.4,367.8,924.6,368.7L924.6,368.7z"/>
</svg>
